HIERARCHY
ROOT Hip
{
	OFFSET	0.00  0.00  0.00 
	CHANNELS 6 Xposition Yposition Zposition Xrotation Zrotation Yrotation
	JOINT Abdomen
	{
		OFFSET	0.039181 5.637571 0.560720
		CHANNELS 3 Xrotation Zrotation Yrotation
		JOINT Chest
		{
			OFFSET	-0.136063 7.190207 -0.124363
			CHANNELS 3 Xrotation Zrotation Yrotation
			JOINT Neck
			{
				OFFSET	0.193764 10.560151 -1.259468
				CHANNELS 3 Xrotation Zrotation Yrotation
				JOINT Head
				{
					OFFSET	-0.096882 0.362727 0.622109
					CHANNELS 3 Xrotation Zrotation Yrotation
					JOINT LeftEye
					{
						OFFSET	1.356350 5.062673 4.221998
						CHANNELS 3 Zrotation Yrotation Xrotation
						End Site
						{
							OFFSET 0.000000 0.000000 0.871939
						}
					}
					JOINT RightEye
					{
						OFFSET	-1.356350 5.062673 4.221998
						CHANNELS 3 Zrotation Yrotation Xrotation
						End Site
						{
							OFFSET 0.000000 0.000000 0.871939
						}
					}
				}
			}
			JOINT RightCollar
			{
				OFFSET	-3.778404 4.940989 0.193764
				CHANNELS 3 Yrotation Zrotation Xrotation
				JOINT RightShoulder
				{
					OFFSET	-2.615818 1.356350 -0.484411
					CHANNELS 3 Zrotation Yrotation Xrotation
					JOINT RightForearm
					{
						OFFSET	-11.432094 0.484410 -1.937643
						CHANNELS 3 Yrotation Zrotation Xrotation
						JOINT RightHand
						{
							OFFSET	-10.657035 -0.096881 0.581293
							CHANNELS 3 Zrotation Yrotation Xrotation
							JOINT RightThumb1
							{
								OFFSET	-0.678175 -0.581297 0.968821
								CHANNELS 3 Zrotation Yrotation Xrotation
								JOINT RightThumb2
								{
									OFFSET	-0.968823 -0.484410 0.484411
									CHANNELS 3 Zrotation Yrotation Xrotation
									JOINT RightThumb3
									{
										OFFSET	-0.929680 -0.497680 0.055639
										CHANNELS 3 Zrotation Yrotation Xrotation
										End Site
										{
											OFFSET -1.097190 -0.513867 -0.001182
										}
									}
								}
							}
							JOINT RightIndex1
							{
								OFFSET	-3.003348 0.581291 1.259468
								CHANNELS 3 Zrotation Yrotation Xrotation
								JOINT RightIndex2
								{
									OFFSET	-1.468153 -0.266718 0.069755
									CHANNELS 3 Zrotation Yrotation Xrotation
									JOINT RightIndex3
									{
										OFFSET	-0.944212 -0.382684 -0.083028
										CHANNELS 3 Zrotation Yrotation Xrotation
										End Site
										{
											OFFSET -0.675657 -0.558718 0.000000
										}
									}
								}
							}
							JOINT RightMid1
							{
								OFFSET	-3.197113 0.581291 0.290646
								CHANNELS 3 Zrotation Yrotation Xrotation
								JOINT RightMid2
								{
									OFFSET	-1.550115 -0.387529 0.000000
									CHANNELS 3 Zrotation Yrotation Xrotation
									JOINT RightMid3
									{
										OFFSET	-0.731071 -0.803926 0.018214
										CHANNELS 3 Zrotation Yrotation Xrotation
										End Site
										{
											OFFSET -0.366992 -0.937043 0.083406
										}
									}
								}
							}
							JOINT RightRing1
							{
								OFFSET	-3.197113 0.387529 -0.678175
								CHANNELS 3 Zrotation Yrotation Xrotation
								JOINT RightRing2
								{
									OFFSET	-1.259466 -0.484410 0.096882
									CHANNELS 3 Zrotation Yrotation Xrotation
									JOINT RightRing3
									{
										OFFSET	-0.551552 -0.801218 0.111221
										CHANNELS 3 Zrotation Yrotation Xrotation
										End Site
										{
											OFFSET -0.245208 -0.810324 0.000000
										}
									}
								}
							}
							JOINT RightPinky1
							{
								OFFSET	-2.809584 -0.096881 -1.453232
								CHANNELS 3 Zrotation Yrotation Xrotation
								JOINT RightPinky2
								{
									OFFSET	-0.984323 -0.316034 0.039140
									CHANNELS 3 Zrotation Yrotation Xrotation
									JOINT RightPinky3
									{
										OFFSET	-0.468908 -0.555906 0.057742
										CHANNELS 3 Zrotation Yrotation Xrotation
										End Site
										{
											OFFSET -0.479664 -0.640198 0.044081
										}
									}
								}
							}
						}
					}
				}
			}
			JOINT LeftCollar
			{
				OFFSET	3.972168 4.940989 0.193764
				CHANNELS 3 Yrotation Zrotation Xrotation
				JOINT LeftShoulder
				{
					OFFSET	2.615818 1.356350 -0.484411
					CHANNELS 3 Zrotation Yrotation Xrotation
					JOINT LeftForearm
					{
						OFFSET	11.432094 0.484410 -1.937643
						CHANNELS 3 Yrotation Zrotation Xrotation
						JOINT LeftHand
						{
							OFFSET	10.657035 -0.096881 0.581293
							CHANNELS 3 Zrotation Yrotation Xrotation
							JOINT LeftThumb1
							{
								OFFSET	0.678175 -0.581297 0.968821
								CHANNELS 3 Zrotation Yrotation Xrotation
								JOINT LeftThumb2
								{
									OFFSET	0.968823 -0.484410 0.484411
									CHANNELS 3 Zrotation Yrotation Xrotation
									JOINT LeftThumb3
									{
										OFFSET	0.929680 -0.497680 0.055639
										CHANNELS 3 Zrotation Yrotation Xrotation
										End Site
										{
											OFFSET 1.097190 -0.513867 -0.001182
										}
									}
								}
							}
							JOINT LeftIndex1
							{
								OFFSET	3.003348 0.581291 1.259468
								CHANNELS 3 Zrotation Yrotation Xrotation
								JOINT LeftIndex2
								{
									OFFSET	1.468153 -0.266718 0.069755
									CHANNELS 3 Zrotation Yrotation Xrotation
									JOINT LeftIndex3
									{
										OFFSET	0.944212 -0.382684 -0.083028
										CHANNELS 3 Zrotation Yrotation Xrotation
										End Site
										{
											OFFSET 0.675657 -0.558718 0.000000
										}
									}
								}
							}
							JOINT LeftMid1
							{
								OFFSET	3.197113 0.581291 0.290646
								CHANNELS 3 Zrotation Yrotation Xrotation
								JOINT LeftMid2
								{
									OFFSET	1.550115 -0.387529 0.000000
									CHANNELS 3 Zrotation Yrotation Xrotation
									JOINT LeftMid3
									{
										OFFSET	0.731071 -0.803926 0.018214
										CHANNELS 3 Zrotation Yrotation Xrotation
										End Site
										{
											OFFSET 0.366992 -0.937043 0.083406
										}
									}
								}
							}
							JOINT LeftRing1
							{
								OFFSET	3.197113 0.387529 -0.678175
								CHANNELS 3 Zrotation Yrotation Xrotation
								JOINT LeftRing2
								{
									OFFSET	1.259466 -0.484410 0.096882
									CHANNELS 3 Zrotation Yrotation Xrotation
									JOINT LeftRing3
									{
										OFFSET	0.551552 -0.801218 0.111221
										CHANNELS 3 Zrotation Yrotation Xrotation
										End Site
										{
											OFFSET 0.245208 -0.810324 0.000000
										}
									}
								}
							}
							JOINT LeftPinky1
							{
								OFFSET	2.809584 -0.096881 -1.453232
								CHANNELS 3 Zrotation Yrotation Xrotation
								JOINT LeftPinky2
								{
									OFFSET	0.984323 -0.316034 0.039140
									CHANNELS 3 Zrotation Yrotation Xrotation
									JOINT LeftPinky3
									{
										OFFSET	0.468908 -0.555906 0.057742
										CHANNELS 3 Zrotation Yrotation Xrotation
										End Site
										{
											OFFSET 0.479664 -0.640198 0.044081
										}
									}
								}
							}
						}
					}
				}
			}
		}
	}
	JOINT RightThigh
	{
		OFFSET	-3.875286 0.717509 0.339475
		CHANNELS 3 Xrotation Zrotation Yrotation
		JOINT RightShin
		{
			OFFSET	-0.434323 -20.673391 0.003424
			CHANNELS 3 Xrotation Zrotation Yrotation
			JOINT RightFoot
			{
				OFFSET	-0.063555 -15.653578 -0.075717
				CHANNELS 3 Xrotation Yrotation Zrotation
				JOINT RightToe
				{
					OFFSET	-0.513669 -2.790361 5.061637
					CHANNELS 3 Xrotation Yrotation Zrotation
					End Site
					{
						OFFSET 0.000000 -0.280183 2.993164
					}
				}
			}
		}
	}
	JOINT LeftThigh
	{
		OFFSET	3.875286 0.717509 0.339475
		CHANNELS 3 Xrotation Zrotation Yrotation
		JOINT LeftShin
		{
			OFFSET	0.434323 -20.673391 0.003424
			CHANNELS 3 Xrotation Zrotation Yrotation
			JOINT LeftFoot
			{
				OFFSET	0.063555 -15.653578 -0.075717
				CHANNELS 3 Xrotation Yrotation Zrotation
				JOINT LeftToe
				{
					OFFSET	0.513669 -2.874842 4.946725
					CHANNELS 3 Xrotation Yrotation Zrotation
					End Site
					{
						OFFSET 0.000000 -0.195702 3.108076
					}
				}
			}
		}
	}
}
MOTION
Frames:     4
Frame Time: 0.033333
-54.663235 42.018417 63.443756 -0.879055 -1.054560 -37.249599 9.143330 -1.388400 -1.985440 4.746450 0.700717 3.751710 0.000000 0.000000 0.000000 -21.924700 -6.037140 2.762100 0.000000 0.000000 0.000000 0.000000 0.000000 0.000000 -6.454400 -22.223000 -0.458105 92.266853 -4.915116 6.228999 45.173756 -0.100380 -0.388256 -10.381201 -21.654882 3.568196 -2.196803 8.088476 9.363434 5.081116 8.200828 -17.027071 -12.745916 11.528087 -17.401958 43.289902 19.533600 6.276580 2.575046 -8.807467 1.011032 15.258279 3.416048 -6.315852 34.696049 23.527008 15.577812 8.244953 -1.502700 0.722675 -12.838020 -2.429856 5.230082 35.942455 25.760197 18.217253 -0.156757 -5.465929 4.370303 -17.719269 -3.972915 -0.926374 33.485588 25.796474 16.095177 7.752715 -4.393883 3.036627 4.441531 -3.901016 1.855662 2.733390 15.341100 0.663143 -88.651970 -8.109829 10.672718 -39.899815 -0.316456 -0.465525 16.729515 24.696566 12.534403 1.301079 -8.886789 9.164861 0.032500 -8.414250 -17.094839 6.905641 -12.327354 -17.909184 -10.289900 -19.533600 6.217660 -26.058514 -10.005517 -5.939190 9.007195 -3.570157 -6.428788 1.471110 -27.195522 -0.506855 -0.351563 0.000000 0.000000 -21.667566 1.148763 4.187686 -36.830936 -25.705244 18.217213 -0.736324 5.381598 4.224761 16.871576 3.912536 -1.093365 -34.376259 -25.747744 16.095236 -8.641175 4.276957 2.914167 -5.330077 3.798435 1.717381 -27.550720 -15.931263 -24.304222 69.959572 0.000111 -0.499541 34.117588 -31.587091 21.918579 -0.000457 0.016384 -0.175016 -14.977865 -1.601876 14.314209 18.809145 -0.014778 -0.100998 3.219975 13.648131 -8.519873 0.000000 0.000000 0.000000 
-55.578674 42.348972 65.140846 -0.527503 -1.406190 -34.791901 8.965880 -0.868173 -3.303680 4.923740 1.576200 3.304600 0.000000 0.000000 0.000000 -21.055401 -6.401700 2.969860 0.000000 0.000000 0.000000 0.000000 0.000000 0.000000 -6.678390 -22.938601 -0.423309 93.236656 -6.288165 5.907258 45.173759 -0.097254 -0.389361 -13.551795 -23.453705 3.346197 -2.196803 8.088476 9.363434 5.081116 8.200828 -17.027071 -12.745916 11.528087 -17.401958 43.289902 19.533600 6.276580 2.575046 -8.807467 1.011032 15.258279 3.416048 -6.315852 34.696049 23.527008 15.577812 8.244953 -1.502700 0.722675 -12.838020 -2.429856 5.230082 35.942455 25.760197 18.217253 -0.156757 -5.465929 4.370303 -17.719269 -3.972915 -0.926374 33.485588 25.796474 16.095177 7.752715 -4.393883 3.036627 4.441531 -3.901016 1.855662 2.182990 14.982800 0.816170 -89.077812 -12.844315 9.300696 -40.427799 -0.428885 -0.333995 17.495329 21.919815 12.056204 1.301079 -8.886789 9.164861 0.032500 -8.414250 -17.094839 6.905641 -12.327354 -17.909184 -10.289900 -19.533600 6.217660 -26.058514 -10.005517 -5.939190 9.007195 -3.570157 -6.428788 1.471110 -27.195522 -0.506855 -0.351563 0.000000 0.000000 -21.667566 1.148763 4.187686 -36.830936 -25.705244 18.217213 -0.736324 5.381598 4.224761 16.871576 3.912536 -1.093365 -34.376259 -25.747744 16.095236 -8.641175 4.276957 2.914167 -5.330077 3.798435 1.717381 -29.985600 -16.939411 -26.760187 69.608017 0.000142 -0.497417 32.604095 -30.928947 20.757109 -0.000457 0.016384 -0.175016 -11.974060 -2.286939 11.594197 17.226303 -0.064098 0.061028 3.350308 13.614823 -9.771907 0.000000 0.000000 0.000000 
-56.582375 42.701649 66.922409 0.703456 -1.757690 -32.019001 7.910190 0.174110 -4.721350 5.278990 2.625560 3.062790 0.000000 0.000000 0.000000 -19.832100 -6.783720 3.476990 0.000000 0.000000 0.000000 0.000000 0.000000 0.000000 -6.905540 -23.635000 -0.637420 93.310081 -7.547317 4.872149 45.349545 -0.094398 -0.392001 -15.516634 -24.392309 3.353716 -2.196803 8.088476 9.363434 5.081116 8.200828 -17.027071 -12.745916 11.528087 -17.401958 43.289902 19.533600 6.276580 2.575046 -8.807467 1.011032 15.258279 3.416048 -6.315852 34.696049 23.527008 15.577812 8.244953 -1.502700 0.722675 -12.838020 -2.429856 5.230082 35.942455 25.760197 18.217253 -0.156757 -5.465929 4.370303 -17.719269 -3.972915 -0.926374 33.485588 25.796474 16.095177 7.752715 -4.393883 3.036627 4.441531 -3.901016 1.855662 2.368760 15.343600 0.931778 -90.147964 -17.052811 11.544703 -41.130245 -0.321606 -0.483061 16.179310 20.654192 11.988786 1.301079 -8.886789 9.164861 0.032500 -8.414250 -17.094839 6.905641 -12.327354 -17.909184 -10.289900 -19.533600 6.217660 -26.058514 -10.005517 -5.939190 9.007195 -3.570157 -6.428788 1.471110 -27.195522 -0.506855 -0.351563 0.000000 0.000000 -21.667566 1.148763 4.187686 -36.830936 -25.705244 18.217213 -0.736324 5.381598 4.224761 16.871576 3.912536 -1.093365 -34.376259 -25.747744 16.095236 -8.641175 4.276957 2.914167 -5.330077 3.798435 1.717381 -30.040009 -17.020035 -31.330866 63.279961 0.000331 -0.460878 26.921509 -25.556395 13.260000 -0.000457 0.016384 -0.175016 -9.522311 -1.754722 9.265115 16.166889 -0.401180 0.010998 4.101360 12.482029 -10.099460 0.000000 0.000000 0.000000 
-57.523972 43.062469 68.729744 2.111050 -2.283620 -29.094900 6.505390 1.222550 -6.184980 5.813930 3.847370 2.687500 0.000000 0.000000 0.000000 -18.227301 -6.514530 3.883670 0.000000 0.000000 0.000000 0.000000 0.000000 0.000000 -7.106950 -23.807301 -0.727591 92.923073 -8.591230 2.318898 46.052643 -0.091672 -0.399527 -14.776051 -23.995811 3.328380 -2.196803 8.088476 9.363434 5.081116 8.200828 -17.027071 -12.745916 11.528087 -17.401958 43.289902 19.533600 6.276580 2.575046 -8.807467 1.011032 15.258279 3.416048 -6.315852 34.696049 23.527008 15.577812 8.244953 -1.502700 0.722675 -12.838020 -2.429856 5.230082 35.942455 25.760197 18.217253 -0.156757 -5.465929 4.370303 -17.719269 -3.972915 -0.926374 33.485588 25.796474 16.095177 7.752715 -4.393883 3.036627 4.441531 -3.901016 1.855662 2.925720 16.045300 0.581343 -92.076752 -21.274544 15.715919 -42.184856 -0.333209 -0.500583 14.225186 20.295076 11.525036 1.301079 -8.886789 9.164861 0.032500 -8.414250 -17.094839 6.905641 -12.327354 -17.909184 -10.289900 -19.533600 6.217660 -26.058514 -10.005517 -5.939190 9.007195 -3.570157 -6.428788 1.471110 -27.195522 -0.506855 -0.351563 0.000000 0.000000 -21.667566 1.148763 4.187686 -36.830936 -25.705244 18.217213 -0.736324 5.381598 4.224761 16.871576 3.912536 -1.093365 -34.376259 -25.747744 16.095236 -8.641175 4.276957 2.914167 -5.330077 3.798435 1.717381 -28.964298 -15.739658 -35.191914 54.315926 0.000545 -0.237809 22.290289 -20.021730 7.907319 -0.000457 0.016384 -0.175016 -7.293471 -1.054144 7.825296 14.929809 -0.572264 0.164310 5.722428 11.315827 -9.364200 0.000000 0.000000 0.000000 
